<?xml version="1.0" standalone="no"?><!DOCTYPE svg PUBLIC "-//W3C//DTD SVG 1.1//EN" "http://www.w3.org/Graphics/SVG/1.1/DTD/svg11.dtd"><svg t="1611045043170" class="icon" viewBox="0 0 1047 1024" version="1.1" xmlns="http://www.w3.org/2000/svg" p-id="3988" xmlns:xlink="http://www.w3.org/1999/xlink" width="204.4921875" height="200"><defs><style type="text/css"></style></defs><path d="M1014.101542 496.561357c3.839392-6.398987 6.398987-11.518176 8.958581-16.637365 1.279797-2.559595 2.559595-7.678784 2.559595-17.917162 0-8.958581 0-14.07777 0-17.917162L1025.619718 79.347433c0-7.678784-1.279797-16.637365-3.839392-26.875744-2.559595-10.238378-7.678784-19.19696-16.637365-26.875744-8.958581-7.678784-17.917162-16.637365-28.155541-19.19696C966.749042 1.279797 961.629852 0 947.552082 0L603.286605 0c-11.518176 0-23.036352 1.279797-33.27473 5.119189-10.238378 3.839392-20.476757 6.398987-28.155541 10.238378-8.958581 3.839392-15.357568 7.678784-20.476757 11.518176-5.119189 3.839392-8.958581 6.398987-10.238378 7.678784l-23.036352 23.036352c-14.07777 14.07777-33.27473 33.27473-56.311082 56.311082-23.036352 23.036352-49.912095 48.632298-78.067636 79.347433l-90.865609 89.585812C191.19187 351.944261 110.56464 432.571491 19.699031 522.157303c-5.119189 5.119189-10.238378 12.797973-12.797973 20.476757-3.839392 8.958581-5.119189 17.917162-6.398987 26.875744-1.279797 10.238378 0 19.19696 2.559595 28.155541 2.559595 8.958581 7.678784 17.917162 14.07777 25.595946L393.399846 998.241903c38.393919 34.554527 79.347433 34.554527 120.300947-1.279797l487.602776-486.322979C1005.142961 508.079533 1008.982353 502.960344 1014.101542 496.561357zM852.847081 249.560476c-20.476757 0-38.393919-7.678784-52.47169-21.756554-14.07777-14.07777-21.756554-31.994933-21.756554-52.47169 0-20.476757 7.678784-38.393919 21.756554-53.751487 14.07777-15.357568 31.994933-21.756554 52.47169-21.756554 20.476757 0 38.393919 7.678784 52.47169 21.756554 14.07777 15.357568 21.756554 33.27473 21.756554 53.751487 0 20.476757-7.678784 38.393919-21.756554 52.47169C891.241 243.161489 874.603635 249.560476 852.847081 249.560476z" p-id="3989"></path></svg>